<svg xmlns="http://www.w3.org/2000/svg" fill="rgb(177, 186, 211)" viewBox="0 0 64 64"  class="svg-icon ">
  <defs>
  </defs>
  <path d="M18.666 50.666c-.694 0-1.36-.267-1.894-.774a2.656 2.656 0 0 1 0-3.76L30.88 32.026 16.772 17.919a2.656 2.656 0 0 1 0-3.76 2.656 2.656 0 0 1 3.76 0l16 16a2.656 2.656 0 0 1 0 3.76l-16 16c-.533.533-1.2.773-1.893.773z"></path><path d="M31.999 50.666a2.73 2.73 0 0 1-1.893-.774 2.656 2.656 0 0 1 0-3.76l14.106-14.106-14.106-14.107a2.656 2.656 0 0 1 0-3.76 2.656 2.656 0 0 1 3.76 0l16 16a2.656 2.656 0 0 1 0 3.76l-16 16c-.534.533-1.2.773-1.894.773z"></path>
</svg>