<svg xmlns="http://www.w3.org/2000/svg" viewBox="0 0 25.46 220.85"><defs><style>.cls-1{fill:#213843;}.cls-2{fill:#2e4451;}</style></defs><title>2Artboard 600</title><g id="Layer_1" data-name="Layer 1"><polygon class="cls-1" points="1.93 161.69 7.33 168.79 12.73 175.9 18.13 168.79 23.53 161.69 14.23 161.69 14.23 0 11.24 0 11.24 161.69 1.93 161.69"/><path class="cls-2" d="M.08,219.85,12,194.16a.68.68,0,0,1,.65-.42H13a.66.66,0,0,1,.65.42l11.76,25.69a.68.68,0,0,1-.65,1H21.42a1.1,1.1,0,0,1-1.11-.77L18.44,216H7l-1.87,4.12a1.15,1.15,0,0,1-1.1.77H.73A.68.68,0,0,1,.08,219.85Zm16.49-8.13-3.82-8.4h-.11l-3.74,8.4Z"/></g></svg>