<svg xmlns="http://www.w3.org/2000/svg" fill="#131526" viewBox="0 0 64 64"  class="svg-icon ">
  <defs>

  </defs>
  <path d="m31.918 48.3.004.056.012-.055c.267.002.508.11.683.285l13.739 13.738a.98.98 0 0 1 .288.696c0 .541-.442.98-.984.98H18.184a.981.981 0 0 1-.692-1.676l13.735-13.738a1 1 0 0 1 .691-.285M31.992 0c.426 0 .812.173 1.09.453l30.172 30.172c.28.28.453.666.453 1.094s-.171.817-.453 1.097l-14 14c-.28.278-.664.453-1.09.453s-.81-.175-1.09-.453l-14.004-14a1.53 1.53 0 0 0-1.086-.453c-.02 0-.04.004-.058.004h-.004a1.53 1.53 0 0 0-1.031.45L16.92 46.784a1.543 1.543 0 0 1-2.179 0l-14.004-14a1.543 1.543 0 0 1 0-2.18L30.891.453a1.54 1.54 0 0 1 1.035-.45h-.004z"></path>
</svg>