<svg xmlns="http://www.w3.org/2000/svg" fill="#e9113c" viewBox="0 0 64 64"  class="svg-icon ">
  <defs>

  </defs>
  <path d="M15.691 8.152c.433 0 .823.174 1.106.457l14.11 14.13c.276.276.657.444 1.077.448l.082-.007h.004a1.55 1.55 0 0 0 1.043-.453l14.09-14.09a1.56 1.56 0 0 1 2.207 0l14.133 14.12c.283.284.457.674.457 1.106s-.174.823-.457 1.106l-30.43 30.426c-.27.268-.637.44-1.047.453h.004q-.032.003-.066.004c-.427 0-.818-.174-1.098-.454L.457 24.95A1.56 1.56 0 0 1 0 23.844c0-.432.174-.823.457-1.106L14.586 8.61a1.56 1.56 0 0 1 1.105-.457"></path>
</svg>