<svg xmlns="http://www.w3.org/2000/svg" fill="#131526" viewBox="0 0 64 64"  class="svg-icon ">
  <defs>

  </defs>
  <path d="M14.022 50.698.398 36.438A1.47 1.47 0 0 1 0 35.427c0-.395.152-.751.398-1.012l13.624-14.268c.249-.257.59-.417.967-.417.378 0 .718.16.967.417l13.625 14.268c.245.26.397.617.397 1.012 0 .396-.152.752-.397 1.013L15.957 50.698c-.25.257-.59.416-.968.416s-.718-.16-.967-.416m34.022 0L34.41 36.438a1.47 1.47 0 0 1-.398-1.012c0-.395.152-.751.398-1.012l13.633-14.268c.248-.257.589-.417.967-.417s.718.16.967.417l13.624 14.268c.246.26.398.617.398 1.012 0 .396-.152.752-.398 1.013L49.978 50.698c-.249.257-.59.416-.967.416-.378 0-.719-.16-.968-.416M44.541 62h.01c.685 0 1.239-.58 1.239-1.296 0-.36-.14-.686-.367-.92L32.872 46.657a1.2 1.2 0 0 0-.871-.375h-.04L27.335 62zM32.963 32.965l13.624-14.25a1.47 1.47 0 0 0 .398-1.012 1.47 1.47 0 0 0-.398-1.013L32.963 2.422a1.33 1.33 0 0 0-.97-.422h-.03L26.51 16.229l5.455 17.156h.03c.38 0 .72-.16.968-.42"></path><path d="M31.028 2.424 17.404 16.683c-.245.26-.397.616-.397 1.012s.152.752.397 1.012l13.624 14.26c.24.253.568.412.934.421L31.963 2a1.33 1.33 0 0 0-.935.424m-12.45 57.36c-.228.234-.368.56-.368.92 0 .717.554 1.296 1.238 1.296h12.515l-.002-15.718c-.33.008-.625.15-.841.375z"></path>
</svg>