<svg class="fill-gradient-radial2" fill="none" width="800px" height="800px" viewBox="-128 -128 512.00 512.00" id="Flat" xmlns="http://www.w3.org/2000/svg" stroke="#fff" stroke-width="25.36">
    <defs>
        <radialGradient id="radial">
            <stop class="radial-stop1" offset="0%"></stop>
            <stop class="radial-stop2" offset="100%"></stop>
            <!--   <stop class="radial-stop3" offset="100%"></stop>-->
        </radialGradient>
        <style>

            .radial-stop1 {
            stop-color: #06d1ec;
            }

            .radial-stop2 {
            stop-color: #4263eb;
            }

            .radial-stop3 {
            stop-color: #262633;
            }

            .fill-gradient-radial2{fill: none;fill:url(#radial);}</style>
    </defs>
    <g id="SVGRepo_bgCarrier" stroke-width="0">

        <rect x="-128" y="-128" width="512.00" height="512.00" rx="256" class="fill-gradient-radial2" strokewidth="0"/>

    </g>

    <g id="SVGRepo_tracerCarrier" stroke-linecap="round" stroke-linejoin="round"/>

    <g id="SVGRepo_iconCarrier"> <path d="M192,208a8.00008,8.00008,0,0,1-8,8H56a8,8,0,0,1,0-16,28.03146,28.03146,0,0,0,28-28V140H56a8,8,0,0,1,0-16H84V84a52,52,0,0,1,88.76953-36.76953A8.00018,8.00018,0,0,1,161.45508,58.544,35.99961,35.99961,0,0,0,100,84v40h36a8,8,0,0,1,0,16H100v32a43.79679,43.79679,0,0,1-10.08447,28H184A8.00008,8.00008,0,0,1,192,208Z"/> </g>

</svg>